<?xml version="1.0" encoding="utf-8"?>
<!-- Generator: Adobe Illustrator 16.0.0, SVG Export Plug-In . SVG Version: 6.00 Build 0)  -->
<!DOCTYPE svg PUBLIC "-//W3C//DTD SVG 1.1//EN" "http://www.w3.org/Graphics/SVG/1.1/DTD/svg11.dtd">
<svg version="1.1" id="Layer_1" xmlns="http://www.w3.org/2000/svg" xmlns:xlink="http://www.w3.org/1999/xlink" x="0px" y="0px"
	 width="280px" height="50px" viewBox="0 0 280 50" enable-background="new 0 0 280 50" xml:space="preserve">
<path fill="#FF2B06" d="M7.218,41.838l-1.901-2.74h1.812l1.018,1.51l1.007-1.51h1.756l-1.901,2.707l2.136,3.076H9.332l-1.208-1.824
	l-1.208,1.824H5.138L7.218,41.838z"/>
<path d="M18.672,41.457h-5.649V40.26h5.649V41.457z M18.672,43.852h-5.649v-1.197h5.649V43.852z"/>
<path d="M23,38.203h-1.588v-1.31H23V38.203z M21.412,39.098H23v5.783h-1.588V39.098z"/>
<path d="M24.029,39.098h1.51v0.805h0.034c0.403-0.648,1.096-0.962,1.767-0.962c1.689,0,2.114,0.951,2.114,2.382v3.559h-1.588v-3.268
	c0-0.951-0.28-1.42-1.018-1.42c-0.861,0-1.23,0.48-1.23,1.654v3.033h-1.589V39.098z"/>
<path d="M34.565,44.143h-0.022c-0.369,0.625-1.018,0.895-1.756,0.895c-1.745,0-2.595-1.5-2.595-3.1c0-1.555,0.861-2.997,2.562-2.997
	c0.682,0,1.354,0.291,1.723,0.862h-0.011h0.022v-2.909h1.588v7.987h-1.51V44.143z M33.179,40.138c-1.041,0-1.398,0.894-1.398,1.845
	c0,0.906,0.414,1.857,1.398,1.857c1.051,0,1.364-0.918,1.364-1.867C34.543,41.031,34.208,40.138,33.179,40.138z"/>
<path d="M38.357,42.375c0.045,1.006,0.537,1.465,1.421,1.465c0.637,0,1.152-0.391,1.252-0.75h1.398
	c-0.448,1.365-1.398,1.947-2.707,1.947c-1.823,0-2.953-1.254-2.953-3.043c0-1.734,1.197-3.054,2.953-3.054
	c1.969,0,2.919,1.655,2.808,3.435H38.357z M40.941,41.367c-0.146-0.805-0.492-1.229-1.264-1.229c-1.007,0-1.297,0.782-1.32,1.229
	H40.941z"/>
<path d="M43.245,39.098h1.51v0.738h0.022c0.38-0.615,1.006-0.896,1.723-0.896c1.812,0,2.628,1.466,2.628,3.11
	c0,1.543-0.85,2.986-2.539,2.986c-0.694,0-1.354-0.303-1.734-0.873h-0.022v2.752h-1.588V39.098z M47.54,42.006
	c0-0.918-0.369-1.868-1.387-1.868c-1.04,0-1.375,0.929-1.375,1.868s0.358,1.834,1.387,1.834C47.205,43.84,47.54,42.945,47.54,42.006
	z"/>
<path d="M51.164,42.375c0.045,1.006,0.537,1.465,1.421,1.465c0.637,0,1.152-0.391,1.252-0.75h1.398
	c-0.447,1.365-1.398,1.947-2.707,1.947c-1.823,0-2.953-1.254-2.953-3.043c0-1.734,1.197-3.054,2.953-3.054
	c1.969,0,2.919,1.655,2.808,3.435H51.164z M53.748,41.367c-0.146-0.805-0.492-1.229-1.264-1.229c-1.006,0-1.297,0.782-1.32,1.229
	H53.748z"/>
<path d="M56.051,39.098h1.51v0.805h0.034c0.403-0.648,1.096-0.962,1.767-0.962c1.689,0,2.114,0.951,2.114,2.382v3.559h-1.588v-3.268
	c0-0.951-0.279-1.42-1.018-1.42c-0.862,0-1.23,0.48-1.23,1.654v3.033h-1.589V39.098z"/>
<path d="M66.588,44.143h-0.022c-0.369,0.625-1.018,0.895-1.756,0.895c-1.745,0-2.595-1.5-2.595-3.1c0-1.555,0.861-2.997,2.562-2.997
	c0.682,0,1.354,0.291,1.723,0.862h-0.011h0.022v-2.909h1.588v7.987h-1.51V44.143z M65.201,40.138c-1.04,0-1.398,0.894-1.398,1.845
	c0,0.906,0.414,1.857,1.398,1.857c1.052,0,1.365-0.918,1.365-1.867C66.565,41.031,66.23,40.138,65.201,40.138z"/>
<path d="M70.379,42.375c0.045,1.006,0.537,1.465,1.421,1.465c0.637,0,1.152-0.391,1.252-0.75h1.398
	c-0.448,1.365-1.398,1.947-2.707,1.947c-1.823,0-2.953-1.254-2.953-3.043c0-1.734,1.197-3.054,2.953-3.054
	c1.969,0,2.919,1.655,2.808,3.435H70.379z M72.963,41.367c-0.146-0.805-0.492-1.229-1.264-1.229c-1.007,0-1.297,0.782-1.32,1.229
	H72.963z"/>
<path d="M75.267,39.098h1.51v0.805h0.033c0.403-0.648,1.097-0.962,1.768-0.962c1.689,0,2.114,0.951,2.114,2.382v3.559h-1.588v-3.268
	c0-0.951-0.28-1.42-1.018-1.42c-0.861,0-1.23,0.48-1.23,1.654v3.033h-1.588V39.098z"/>
<path d="M83.689,39.098h1.164v1.062h-1.164v2.863c0,0.537,0.134,0.67,0.671,0.67c0.167,0,0.324-0.01,0.492-0.043v1.24
	c-0.269,0.045-0.615,0.057-0.929,0.057c-0.973,0-1.823-0.225-1.823-1.375V40.16h-0.962v-1.062h0.962v-1.734h1.588V39.098z"/>
<path d="M85.434,36.894h1.588v7.987h-1.588V36.894z"/>
<path d="M90.904,45.607c-0.347,0.928-0.895,1.309-1.991,1.309c-0.325,0-0.649-0.023-0.974-0.057v-1.309
	c0.302,0.023,0.615,0.068,0.929,0.057c0.548-0.057,0.727-0.627,0.548-1.086l-2.036-5.424h1.7l1.309,3.959h0.022l1.264-3.959h1.645
	L90.904,45.607z"/>
<g>
	<path d="M99.417,38.868c1.823,0,2.998,1.208,2.998,3.054c0,1.834-1.175,3.043-2.998,3.043c-1.812,0-2.987-1.209-2.987-3.043
		C96.43,40.076,97.604,38.868,99.417,38.868z M99.417,43.768c1.085,0,1.409-0.93,1.409-1.846c0-0.93-0.324-1.857-1.409-1.857
		c-1.074,0-1.398,0.928-1.398,1.857C98.018,42.838,98.343,43.768,99.417,43.768z"/>
	<path d="M102.995,39.024h1.51v1.073h0.022c0.291-0.727,1.074-1.229,1.846-1.229c0.112,0,0.246,0.022,0.347,0.056V40.4
		c-0.146-0.033-0.38-0.057-0.57-0.057c-1.164,0-1.566,0.84-1.566,1.857v2.605h-1.589V39.024z"/>
	<path d="M112.682,44.438c0,0.951-0.335,2.562-2.998,2.562c-1.141,0-2.472-0.537-2.55-1.857h1.577
		c0.146,0.594,0.626,0.795,1.186,0.795c0.883,0,1.286-0.604,1.275-1.432v-0.762h-0.022c-0.347,0.605-1.04,0.896-1.733,0.896
		c-1.734,0-2.472-1.32-2.472-2.91c0-1.498,0.861-2.862,2.483-2.862c0.76,0,1.342,0.257,1.722,0.929h0.022v-0.772h1.51V44.438z
		 M111.172,41.844c0-0.939-0.324-1.779-1.354-1.779c-0.895,0-1.286,0.783-1.286,1.645c0,0.828,0.313,1.734,1.286,1.734
		C110.725,43.443,111.172,42.672,111.172,41.844z"/>
	<path d="M113.442,40.803c0.089-1.487,1.42-1.935,2.718-1.935c1.152,0,2.54,0.257,2.54,1.644v3.01c0,0.525,0.056,1.051,0.201,1.285
		h-1.611c-0.056-0.178-0.101-0.369-0.112-0.559c-0.503,0.525-1.242,0.717-1.946,0.717c-1.096,0-1.969-0.549-1.969-1.734
		c0-1.309,0.984-1.623,1.969-1.756c0.973-0.146,1.879-0.113,1.879-0.762c0-0.682-0.47-0.782-1.029-0.782
		c-0.604,0-0.996,0.246-1.052,0.872H113.442z M117.111,41.977c-0.269,0.236-0.828,0.246-1.32,0.336
		c-0.492,0.102-0.939,0.27-0.939,0.852c0,0.592,0.459,0.736,0.973,0.736c1.242,0,1.287-0.984,1.287-1.33V41.977z"/>
	<path d="M119.706,39.024h1.51v0.806h0.034c0.402-0.648,1.096-0.962,1.767-0.962c1.689,0,2.114,0.95,2.114,2.382v3.557h-1.588
		v-3.266c0-0.951-0.28-1.42-1.018-1.42c-0.862,0-1.231,0.48-1.231,1.654v3.031h-1.588V39.024z"/>
	<path d="M127.524,38.13h-1.588v-1.31h1.588V38.13z M125.936,39.024h1.588v5.782h-1.588V39.024z"/>
	<path d="M128.195,43.611l3.009-3.391h-2.785v-1.196h4.877v1.196l-3.009,3.391h3.222v1.195h-5.313V43.611z"/>
	<path d="M135.443,42.303c0.044,1.006,0.537,1.465,1.42,1.465c0.637,0,1.152-0.393,1.253-0.75h1.398
		c-0.447,1.365-1.398,1.947-2.707,1.947c-1.823,0-2.953-1.254-2.953-3.043c0-1.734,1.197-3.054,2.953-3.054
		c1.969,0,2.919,1.655,2.808,3.435H135.443z M138.027,41.295c-0.145-0.805-0.492-1.23-1.264-1.23c-1.007,0-1.298,0.783-1.32,1.23
		H138.027z"/>
	<path d="M144.459,44.068h-0.022c-0.369,0.627-1.019,0.896-1.757,0.896c-1.745,0-2.595-1.5-2.595-3.1
		c0-1.555,0.861-2.997,2.562-2.997c0.683,0,1.354,0.29,1.723,0.86h-0.012h0.022V36.82h1.589v7.986h-1.51V44.068z M143.071,40.064
		c-1.04,0-1.397,0.895-1.397,1.846c0,0.906,0.413,1.857,1.397,1.857c1.052,0,1.365-0.918,1.365-1.869
		C144.437,40.959,144.101,40.064,143.071,40.064z"/>
	<path d="M151.762,38.297h-2.394V36.82h6.544v1.477h-2.394v6.51h-1.757V38.297z"/>
	<path d="M156.605,36.82h5.973v1.477h-4.217v1.712h3.87v1.364h-3.87v1.957h4.307v1.477h-6.062V36.82z"/>
	<path d="M163.405,36.82h3.445c2.069,0,3.624,1.299,3.624,3.949c0,2.314-1.186,4.037-3.624,4.037h-3.445V36.82z M165.162,43.33
		h1.565c1.019,0,1.991-0.625,1.991-2.393c0-1.611-0.56-2.641-2.305-2.641h-1.252V43.33z"/>
	<path d="M175.497,42.303c0.044,1.006,0.537,1.465,1.42,1.465c0.638,0,1.152-0.393,1.253-0.75h1.398
		c-0.447,1.365-1.398,1.947-2.707,1.947c-1.823,0-2.953-1.254-2.953-3.043c0-1.734,1.197-3.054,2.953-3.054
		c1.969,0,2.92,1.655,2.808,3.435H175.497z M178.08,41.295c-0.145-0.805-0.491-1.23-1.264-1.23c-1.007,0-1.297,0.783-1.319,1.23
		H178.08z"/>
	<path d="M183.36,44.807h-1.768l-1.98-5.782h1.667l1.22,3.948h0.021l1.22-3.948h1.577L183.36,44.807z"/>
	<path d="M186.838,42.303c0.045,1.006,0.537,1.465,1.421,1.465c0.638,0,1.152-0.393,1.253-0.75h1.398
		c-0.447,1.365-1.398,1.947-2.707,1.947c-1.823,0-2.953-1.254-2.953-3.043c0-1.734,1.197-3.054,2.953-3.054
		c1.969,0,2.919,1.655,2.808,3.435H186.838z M189.422,41.295c-0.145-0.805-0.492-1.23-1.264-1.23c-1.007,0-1.298,0.783-1.32,1.23
		H189.422z"/>
	<path d="M191.727,39.024h1.51v0.806h0.033c0.403-0.648,1.097-0.962,1.768-0.962c1.689,0,2.114,0.95,2.114,2.382v3.557h-1.588
		v-3.266c0-0.951-0.28-1.42-1.019-1.42c-0.861,0-1.23,0.48-1.23,1.654v3.031h-1.588V39.024z"/>
	<path d="M200.148,39.024h1.163v1.063h-1.163v2.863c0,0.537,0.135,0.67,0.671,0.67c0.168,0,0.325-0.01,0.492-0.045v1.242
		c-0.268,0.045-0.615,0.057-0.928,0.057c-0.974,0-1.823-0.225-1.823-1.377v-3.41h-0.963v-1.063h0.963v-1.733h1.588V39.024z"/>
</g>
<g>
	<g>
		<path fill="#FF2B06" d="M12.005,10.47H4.553V3.655h23.09v6.815h-7.45v19.778h-8.188V10.47z"/>
		<path fill="#FF2B06" d="M28.916,3.655h22.415v6.815H37.109v3.314h14.221v6.333H37.109v3.314h14.225v6.816H28.916V3.655z"/>
		<path fill="#FF2B06" d="M52.709,3.655h13.445c8.863,0,11.995,6.555,11.995,13.257c0,8.158-4.321,13.336-13.595,13.336H52.709
			V3.655z M60.902,23.432h3.205c5.104,0,5.85-4.135,5.85-6.633c0-1.673-0.524-6.328-6.447-6.328h-2.607V23.432z"/>
	</g>
	<g>
		<g>
			<path fill="#FF2B06" d="M89.922,20l-2.499-4.145L84.986,20h-6.003l5.698-8.38l-5.487-8.016h6.005l2.224,3.962l2.288-3.962h6.003
				l-5.486,8.016L95.927,20H89.922z"/>
		</g>
	</g>
</g>
<g>
	<path d="M100.258,3.766h3.587v23.327h13.286v3.155h-16.873V3.766z"/>
	<path d="M130.706,18.563c0.745-0.096,1.244-0.408,1.496-0.936c0.144-0.29,0.216-0.706,0.216-1.249c0-1.11-0.393-1.915-1.179-2.416
		c-0.786-0.5-1.91-0.751-3.373-0.751c-1.691,0-2.891,0.459-3.598,1.377c-0.396,0.507-0.653,1.263-0.773,2.265h-3.028
		c0.06-2.386,0.831-4.046,2.313-4.98s3.202-1.401,5.158-1.401c2.269,0,4.111,0.433,5.528,1.298c1.404,0.865,2.106,2.211,2.106,4.038
		v11.124c0,0.336,0.069,0.606,0.208,0.811s0.43,0.307,0.874,0.307c0.145,0,0.307-0.01,0.487-0.027
		c0.18-0.019,0.372-0.045,0.577-0.082v2.398c-0.505,0.145-0.89,0.234-1.154,0.27c-0.265,0.037-0.625,0.055-1.082,0.055
		c-1.118,0-1.929-0.396-2.434-1.189c-0.265-0.421-0.451-1.016-0.559-1.785c-0.661,0.865-1.61,1.617-2.848,2.254
		s-2.602,0.955-4.092,0.955c-1.791,0-3.254-0.543-4.39-1.629c-1.136-1.087-1.704-2.446-1.704-4.078c0-1.789,0.559-3.176,1.676-4.159
		c1.118-0.984,2.584-1.591,4.399-1.819L130.706,18.563z M123.874,27.329c0.685,0.54,1.496,0.81,2.434,0.81
		c1.142,0,2.247-0.265,3.317-0.792c1.803-0.876,2.704-2.31,2.704-4.302v-2.609c-0.396,0.253-0.905,0.464-1.529,0.633
		c-0.624,0.169-1.235,0.289-1.835,0.361l-1.961,0.252c-1.175,0.156-2.059,0.401-2.651,0.737c-1.004,0.563-1.505,1.463-1.505,2.698
		C122.846,26.052,123.188,26.789,123.874,27.329z"/>
	<path d="M144.136,10.941v12.817c0,0.985,0.151,1.791,0.457,2.416c0.562,1.153,1.608,1.73,3.142,1.73c2.2,0,3.699-1.01,4.494-3.029
		c0.434-1.081,0.65-2.565,0.65-4.452v-9.482h3.244v19.307h-3.064l0.036-2.85c-0.413,0.734-0.926,1.353-1.539,1.857
		c-1.215,1.01-2.689,1.514-4.422,1.514c-2.701,0-4.541-0.919-5.52-2.758c-0.53-0.984-0.795-2.301-0.795-3.947V10.941H144.136z"/>
	<path d="M163.352,24.19c0.099,1.081,0.374,1.911,0.828,2.487c0.834,1.046,2.281,1.568,4.342,1.568c1.227,0,2.307-0.262,3.238-0.783
		c0.933-0.523,1.398-1.332,1.398-2.426c0-0.828-0.372-1.459-1.117-1.893c-0.477-0.264-1.417-0.57-2.821-0.919l-2.62-0.649
		c-1.673-0.408-2.906-0.865-3.7-1.369c-1.417-0.878-2.125-2.092-2.125-3.642c0-1.827,0.667-3.305,2-4.435
		c1.334-1.129,3.127-1.694,5.38-1.694c2.948,0,5.073,0.854,6.376,2.56c0.815,1.082,1.212,2.248,1.188,3.498h-3.064
		c-0.062-0.729-0.325-1.393-0.793-1.99c-0.763-0.848-2.085-1.273-3.968-1.273c-1.255,0-2.205,0.234-2.851,0.701
		c-0.646,0.467-0.969,1.084-0.969,1.85c0,0.838,0.424,1.509,1.272,2.012c0.49,0.3,1.212,0.563,2.168,0.792l2.186,0.523
		c2.375,0.565,3.967,1.112,4.775,1.64c1.262,0.829,1.893,2.134,1.893,3.912c0,1.719-0.66,3.202-1.98,4.452s-3.331,1.875-6.031,1.875
		c-2.908,0-4.968-0.652-6.178-1.955c-1.211-1.305-1.859-2.918-1.944-4.841H163.352z"/>
	<path d="M190.23,18.563c0.744-0.096,1.243-0.408,1.496-0.936c0.144-0.29,0.216-0.706,0.216-1.249c0-1.11-0.394-1.915-1.179-2.416
		c-0.785-0.5-1.91-0.751-3.373-0.751c-1.69,0-2.891,0.459-3.599,1.377c-0.396,0.507-0.653,1.263-0.773,2.265h-3.028
		c0.061-2.386,0.832-4.046,2.314-4.98c1.481-0.934,3.202-1.401,5.158-1.401c2.269,0,4.111,0.433,5.527,1.298
		c1.404,0.865,2.106,2.211,2.106,4.038v11.124c0,0.336,0.069,0.606,0.207,0.811c0.139,0.204,0.43,0.307,0.875,0.307
		c0.144,0,0.307-0.01,0.486-0.027c0.181-0.019,0.373-0.045,0.577-0.082v2.398c-0.505,0.145-0.89,0.234-1.153,0.27
		c-0.265,0.037-0.625,0.055-1.082,0.055c-1.118,0-1.929-0.396-2.434-1.189c-0.265-0.421-0.451-1.016-0.559-1.785
		c-0.661,0.865-1.61,1.617-2.849,2.254c-1.237,0.637-2.602,0.955-4.092,0.955c-1.791,0-3.254-0.543-4.39-1.629
		c-1.136-1.087-1.703-2.446-1.703-4.078c0-1.789,0.559-3.176,1.676-4.159c1.118-0.984,2.584-1.591,4.399-1.819L190.23,18.563z
		 M183.397,27.329c0.685,0.54,1.496,0.81,2.434,0.81c1.142,0,2.247-0.265,3.317-0.792c1.803-0.876,2.703-2.31,2.703-4.302v-2.609
		c-0.396,0.253-0.905,0.464-1.528,0.633c-0.624,0.169-1.235,0.289-1.835,0.361l-1.961,0.252c-1.176,0.156-2.06,0.401-2.652,0.737
		c-1.003,0.563-1.505,1.463-1.505,2.698C182.37,26.052,182.713,26.789,183.397,27.329z"/>
	<path d="M200.415,10.941h3.083v2.74c0.913-1.129,1.88-1.94,2.902-2.434c1.021-0.493,2.156-0.739,3.406-0.739
		c2.74,0,4.591,0.955,5.553,2.866c0.528,1.045,0.793,2.542,0.793,4.488v12.385h-3.299V18.079c0-1.177-0.175-2.127-0.522-2.848
		c-0.577-1.202-1.623-1.803-3.137-1.803c-0.77,0-1.4,0.079-1.894,0.234c-0.889,0.265-1.67,0.793-2.343,1.586
		c-0.541,0.637-0.893,1.295-1.055,1.974s-0.243,1.649-0.243,2.912v10.113h-3.245V10.941z"/>
	<path d="M220.947,10.941h3.083v2.74c0.913-1.129,1.88-1.94,2.902-2.434c1.021-0.493,2.156-0.739,3.407-0.739
		c2.739,0,4.591,0.955,5.552,2.866c0.528,1.045,0.793,2.542,0.793,4.488v12.385h-3.299V18.079c0-1.177-0.175-2.127-0.522-2.848
		c-0.577-1.202-1.623-1.803-3.137-1.803c-0.77,0-1.4,0.079-1.893,0.234c-0.89,0.265-1.671,0.793-2.344,1.586
		c-0.541,0.637-0.893,1.295-1.055,1.974s-0.243,1.649-0.243,2.912v10.113h-3.245V10.941z"/>
	<path d="M253.405,11.473c1.278,0.643,2.251,1.475,2.92,2.497c0.646,0.974,1.075,2.109,1.29,3.407
		c0.191,0.889,0.287,2.307,0.287,4.254h-14.043c0.06,1.965,0.519,3.54,1.378,4.727c0.858,1.188,2.188,1.781,3.987,1.781
		c1.682,0,3.023-0.562,4.024-1.685c0.561-0.651,0.958-1.406,1.192-2.264h3.19c-0.084,0.709-0.364,1.499-0.838,2.37
		c-0.476,0.872-1.005,1.584-1.589,2.137c-0.979,0.961-2.188,1.609-3.632,1.947c-0.775,0.191-1.652,0.287-2.63,0.287
		c-2.389,0-4.413-0.873-6.073-2.622s-2.49-4.197-2.49-7.347c0-3.1,0.836-5.618,2.509-7.553c1.672-1.935,3.857-2.902,6.558-2.902
		C250.808,10.508,252.127,10.83,253.405,11.473z M254.567,19.053c-0.132-1.406-0.436-2.53-0.912-3.371
		c-0.882-1.562-2.354-2.343-4.415-2.343c-1.478,0-2.717,0.538-3.718,1.613c-1.001,1.076-1.532,2.443-1.591,4.101H254.567z"/>
</g>
</svg>
